<svg width="97" height="194" viewBox="0 0 97 194" fill="none" xmlns="http://www.w3.org/2000/svg">
<path d="M50.7705 119.911C50.5776 127.52 54.347 126.906 54.347 126.906C54.5808 126.275 55.1184 125.41 55.7671 124.405C57.7366 121.372 60.7579 117.117 59.6242 114.599C59.1099 113.453 58.1457 111.858 57.1054 110.256C55.0834 107.159 52.7691 104.033 52.7691 104.033L62.8267 102.367C62.8267 102.367 69.9915 105.33 75.6427 105.675C75.7888 105.686 75.9407 105.686 76.081 105.686C81.2413 105.786 80.4114 101.736 80.4114 100.433C80.4114 99.8775 79.0147 98.8548 77.3842 97.8496C75.0524 96.4236 72.2298 95.0152 72.2298 95.0152L73.7609 91.8478C74.8245 92.0406 75.707 92.0757 76.4316 91.988C80.3471 91.5614 79.8095 87.7043 79.1725 86.0271C78.9913 85.5479 78.0913 84.8174 76.8173 83.9817C72.7908 81.3285 65.0884 77.6351 65.0884 77.6351H53.786L42.6648 107.995C42.6648 107.989 50.9575 112.302 50.7705 119.911Z" fill="white"/>
<path opacity="0.4" d="M50.7705 119.911C50.5776 127.52 54.347 126.906 54.347 126.906C54.5808 126.275 55.1184 125.41 55.7671 124.405C57.7366 121.372 60.7579 117.117 59.6242 114.599C59.1099 113.453 58.1457 111.858 57.1054 110.256C55.0834 107.159 52.7691 104.033 52.7691 104.033L62.8267 102.367C62.8267 102.367 69.9915 105.33 75.6427 105.675C75.7888 105.686 75.9407 105.686 76.081 105.686C81.2413 105.786 80.4114 101.736 80.4114 100.433C80.4114 99.8775 79.0147 98.8548 77.3842 97.8496C75.0524 96.4236 72.2298 95.0152 72.2298 95.0152L73.7609 91.8478C74.8245 92.0406 75.707 92.0757 76.4316 91.988C80.3471 91.5614 79.8095 87.7043 79.1725 86.0271C78.9913 85.5479 78.0913 84.8174 76.8173 83.9817C72.7908 81.3285 65.0884 77.6351 65.0884 77.6351H53.786L42.6648 107.995C42.6648 107.989 50.9575 112.302 50.7705 119.911Z" fill="#7335EE"/>
<path opacity="0.4" d="M50.7703 119.911C50.5774 127.52 54.3468 126.906 54.3468 126.906C54.5806 126.275 55.1182 125.41 55.7669 124.405C55.6325 123.698 55.5507 122.938 55.5624 122.19C55.6091 119.584 57.748 114.599 57.748 114.599L55.5624 111.139C55.8838 110.812 56.4273 110.514 57.1052 110.251C55.0831 107.153 52.7689 104.027 52.7689 104.027L62.8265 102.361C62.8265 102.361 69.9913 105.324 75.6425 105.669C75.7886 105.681 75.9405 105.681 76.0808 105.681C75.7535 102.846 76.8697 99.2757 77.384 97.8439C75.0522 96.418 72.2296 95.0096 72.2296 95.0096L73.7607 91.8421C74.8243 92.035 75.7068 92.07 76.4314 91.9824C75.9171 89.5104 76.408 86.0799 76.823 83.9702C72.7964 81.317 65.094 77.6236 65.094 77.6236H53.7916L42.6704 107.983C42.6646 107.989 50.9573 112.302 50.7703 119.911Z" fill="#7335EE"/>
<path d="M53.7802 77.6296H65.0884C65.0884 77.6296 78.4186 84.0229 79.1725 86.0274C79.9264 88.0261 80.54 93.0695 73.7551 91.8539L72.2239 95.0214C72.2239 95.0214 80.4056 99.0889 80.4056 100.439C80.4056 101.783 81.288 106.02 75.6369 105.675C69.9857 105.336 62.8267 102.367 62.8267 102.367L52.7691 104.033C52.7691 104.033 58.1164 111.25 59.6242 114.605C61.132 117.959 55.2879 124.376 54.347 126.918C54.347 126.918 50.5776 127.532 50.7646 119.917C50.9516 112.308 42.6648 107.995 42.6648 107.995" stroke="#263238" stroke-miterlimit="10" stroke-linecap="round" stroke-linejoin="round"/>
<path d="M56.4626 113.243C56.4626 113.243 53.6283 111.659 52.0854 114.599" stroke="#263238" stroke-miterlimit="10" stroke-linecap="round" stroke-linejoin="round"/>
<path d="M91.0883 116.335H35.0791C32.0869 116.335 29.6675 113.909 29.6675 110.923V5.91157C29.6675 2.91943 32.0928 0.5 35.0791 0.5H91.0883C94.0805 0.5 96.4999 2.92527 96.4999 5.91157V110.923C96.4999 113.909 94.0805 116.335 91.0883 116.335Z" fill="#7335EE" stroke="#263238" stroke-miterlimit="10" stroke-linecap="round" stroke-linejoin="round"/>
<path d="M94.4312 5.19838V111.934C94.4312 113.266 93.35 114.347 92.0176 114.347H34.1558C32.8233 114.347 31.7422 113.266 31.7422 111.934V5.19838C31.7422 3.86594 32.8233 2.7848 34.1558 2.7848H47.0127C47.86 2.7848 48.6139 3.31076 48.912 4.10555L49.4555 5.5724C49.7535 6.36719 50.5074 6.89315 51.3548 6.89315H74.8186C75.666 6.89315 76.4199 6.36719 76.7179 5.5724L77.2614 4.10555C77.5594 3.31076 78.3133 2.7848 79.1607 2.7848H92.0176C93.35 2.7848 94.4312 3.86594 94.4312 5.19838Z" fill="#263238"/>
<path d="M71.5576 87.9851H54.6099C51.4366 87.9851 48.8652 85.4137 48.8652 82.2404C48.8652 79.0671 51.4366 76.4957 54.6099 76.4957H71.5576C74.7309 76.4957 77.3023 79.0671 77.3023 82.2404C77.3023 85.4137 74.7309 87.9851 71.5576 87.9851Z" fill="#7335EE" stroke="#263238" stroke-miterlimit="10" stroke-linecap="round" stroke-linejoin="round"/>
<path d="M57.5494 3.98266C57.5494 4.532 57.0995 4.98199 56.5501 4.98199C56.0008 4.98199 55.5508 4.532 55.5508 3.98266C55.5508 3.43332 56.0008 2.98333 56.5501 2.98333C57.0995 2.98333 57.5494 3.43332 57.5494 3.98266Z" fill="white" stroke="#263238" stroke-miterlimit="10" stroke-linecap="round" stroke-linejoin="round"/>
<path d="M70.6166 3.98265C70.6166 4.32744 70.3361 4.60796 69.9913 4.60796C69.6465 4.60796 69.366 4.32744 69.366 3.98265C69.366 3.63785 69.6465 3.35734 69.9913 3.35734C70.3361 3.35734 70.6166 3.63785 70.6166 3.98265Z" fill="white" stroke="#263238" stroke-miterlimit="10" stroke-linecap="round" stroke-linejoin="round"/>
<path d="M67.0575 4.33896H59.5655C59.3726 4.33896 59.2148 4.18117 59.2148 3.98832C59.2148 3.79547 59.3726 3.63767 59.5655 3.63767H67.0575C67.2504 3.63767 67.4082 3.79547 67.4082 3.98832C67.414 4.18117 67.2504 4.33896 67.0575 4.33896Z" fill="white" stroke="#263238" stroke-miterlimit="10" stroke-linecap="round" stroke-linejoin="round"/>
<path d="M84.0405 70.6223H42.1329C38.1006 70.6223 34.8337 67.3555 34.8337 63.3231V20.2467C34.8337 16.2143 38.1006 12.9475 42.1329 12.9475H84.0405C88.0729 12.9475 91.3397 16.2143 91.3397 20.2467V63.3231C91.3339 67.3555 88.0671 70.6223 84.0405 70.6223Z" fill="white" stroke="#263238" stroke-miterlimit="10" stroke-linecap="round" stroke-linejoin="round"/>
<path d="M24.5774 68.2206C24.5774 68.2206 28.3468 69.3835 29.6675 72.662" stroke="#263238" stroke-miterlimit="10" stroke-linecap="round" stroke-linejoin="round"/>
<path d="M7.50118 172.028C7.92195 164.747 8.19662 157.307 8.55895 151.323C9.31283 138.904 9.8797 130.576 11.0076 122.097C12.1355 113.617 11.9485 100.813 12.5154 96.3363C13.0822 91.8597 14.7653 90.9188 16.0978 85.6008C17.4302 80.2885 18.6224 69.705 20.808 68.2147C22.9937 66.7245 29.6618 63.9311 29.6618 63.9311V93.9051C33.6182 99.9888 38.3285 101.497 38.3285 101.497C41.344 92.7714 40.9641 89.3059 43.9796 86.1034C46.9952 82.9008 49.1692 78.7106 53.897 80.4638C56.1528 81.2995 57.3567 82.1469 56.2229 89.7909C55.0892 97.4349 52.8334 99.831 52.8334 99.831C52.4594 102.443 53.0204 110.035 53.9613 113.915C54.9022 117.801 51.3256 128.122 49.625 134.714C47.9302 141.306 38.8837 154.671 38.8837 154.671C38.8837 154.671 38.5096 162.035 39.2577 169.761C39.3278 170.468 39.4155 171.228 39.5148 172.022L40.1109 192.541L7.48364 191.927V172.028H7.50118Z" fill="#B99479"/>
<path opacity="0.4" d="M55.5626 82.7189C55.3814 82.0643 55.4106 81.6377 55.5626 81.3631C55.1184 80.954 54.5574 80.7085 53.9029 80.4748C49.1692 78.7216 46.9952 82.9117 43.9797 86.1143C43.6992 86.4123 43.4479 86.7162 43.22 87.0259C45.9491 85.9974 49.5257 86.0149 50.9633 88.0136C52.7808 90.5031 56.4684 85.9857 55.5626 82.7189Z" fill="#7335EE"/>
<path opacity="0.4" d="M35.1143 164.676L33.624 170.263C33.624 170.263 35.722 168.206 38.8661 163.215C38.7142 158.341 38.9012 154.683 38.9012 154.683C38.9012 154.683 47.9478 141.317 49.6425 134.725C51.3373 128.127 54.9197 117.807 53.9788 113.926C53.0379 110.04 52.471 102.449 52.8509 99.8363C52.8509 99.8363 53.3243 99.3337 53.9437 98.048C53.5347 97.6506 53.0554 97.3292 52.5236 97.2123C52.5236 97.2123 50.1042 102.94 50.6886 110.484C51.273 118.017 49.9815 118.648 47.4861 128.443C44.9907 138.237 40.8473 149.335 38.9012 151.322C36.9493 153.315 36.1019 162.274 35.1143 164.676Z" fill="#7335EE"/>
<path opacity="0.4" d="M31.5494 98.6676C31.5494 98.6676 28.5747 99.1293 27.3826 99.8364C27.3826 99.8364 33.1857 101.35 33.5597 102.963C33.9337 104.57 35.1785 106.253 37.3817 104.284C37.3817 104.284 37.4986 103.051 37.7265 101.257C36.3239 100.631 32.7708 98.6734 29.6676 93.9105V63.9306C29.6676 63.9306 26.3715 65.3098 23.6541 66.6481C25.6703 66.9169 27.7332 67.5364 28.5338 68.8981C28.5338 68.8981 27.9261 71.4052 25.1443 72.6558C22.9995 73.6201 25.1443 89.7905 25.1443 89.7905C25.1443 89.7905 21.632 90.6554 20.4983 93.9105C20.4983 93.9105 26.278 94.5008 28.6624 96.3358C31.0468 98.165 31.5494 98.6676 31.5494 98.6676Z" fill="#7335EE"/>
<path opacity="0.4" d="M8.55886 151.323C8.26081 156.173 8.03289 161.97 7.729 167.873C8.4712 156.658 10.727 137.402 10.727 137.402C10.727 137.402 12.7432 144.52 12.8951 143.766C13.3451 141.54 11.9542 128.94 12.077 124.452C12.1354 122.418 11.9893 117.205 11.8081 112.115C11.6445 115.61 11.4107 119.116 11.0133 122.091C9.87961 130.576 9.31274 138.904 8.55886 151.323Z" fill="#7335EE"/>
<path d="M7.50146 193.324V172.028C7.92224 164.746 8.1969 157.307 8.55923 151.323C9.31311 138.904 9.87999 130.576 11.0079 122.097C12.1358 113.617 11.9488 100.813 12.5156 96.336C13.0825 91.8595 14.7656 90.9186 16.098 85.6005C17.4305 80.2883 18.6227 69.7048 20.8083 68.2145C22.994 66.7243 29.662 63.9309 29.662 63.9309V93.9049C33.6185 99.9886 38.3288 101.496 38.3288 101.496C41.3443 92.7712 40.9644 89.3057 43.9799 86.1031C46.9955 82.9006 49.1694 78.7104 53.8973 80.4636C56.1531 81.2993 57.3569 82.1467 56.2232 89.7907C55.0895 97.4347 52.8337 99.8308 52.8337 99.8308C52.4596 102.443 53.0207 110.034 53.9615 113.915C54.9024 117.801 51.3259 128.122 49.6253 134.714C47.9305 141.306 38.8839 154.671 38.8839 154.671C38.8839 154.671 38.5099 162.035 39.258 169.761C39.3281 170.468 39.4157 171.227 39.5151 172.022C39.5151 172.022 39.819 185.271 41.2625 193.318" stroke="#263238" stroke-miterlimit="10" stroke-linecap="round" stroke-linejoin="round"/>
<path d="M38.3343 101.502C38.3343 101.502 37.3934 105.704 35.5058 106.645C33.6181 107.586 30.9124 106.645 30.9124 106.645" stroke="#263238" stroke-miterlimit="10" stroke-linecap="round" stroke-linejoin="round"/>
<path d="M29.6618 93.9102C29.6618 93.9102 27.7801 89.72 21.749 93.355" stroke="#263238" stroke-miterlimit="10" stroke-linecap="round" stroke-linejoin="round"/>
<path d="M29.6618 76.9917C29.6618 76.9917 29.2877 74.7709 26.1787 74.2041" stroke="#263238" stroke-miterlimit="10" stroke-linecap="round" stroke-linejoin="round"/>
<path d="M38.8953 154.682C35.3129 159.217 35.9966 163.554 34.6174 165.815C33.2382 168.077 33.4311 176.177 33.4311 176.177" stroke="#263238" stroke-miterlimit="10" stroke-linecap="round" stroke-linejoin="round"/>
<path d="M12.8953 111.138C12.8953 111.138 12.8953 120.039 12.8953 126.906C12.8953 133.778 14.216 140.37 14.216 140.37" stroke="#263238" stroke-miterlimit="10" stroke-linecap="round" stroke-linejoin="round"/>
<path d="M52.8393 99.8361C52.8393 99.8361 52.8393 97.142 52.0854 96.3355" stroke="#263238" stroke-miterlimit="10" stroke-linecap="round" stroke-linejoin="round"/>
<path d="M50.7647 91.3684C50.7647 91.3684 49.0934 85.7523 44.196 88.2009" stroke="#263238" stroke-miterlimit="10" stroke-linecap="round" stroke-linejoin="round"/>
<path d="M35.6694 100.111C32.0344 100.187 28.341 98.5738 26.1787 100.537" stroke="#263238" stroke-miterlimit="10" stroke-linecap="round" stroke-linejoin="round"/>
<path d="M6.96935 187.158H5.98755V164.811H6.96935C7.60635 164.811 8.12647 165.331 8.12647 165.968V186.007C8.12647 186.638 7.61219 187.158 6.96935 187.158Z" fill="#263238"/>
<path d="M5.98755 167.704C5.98755 167.704 23.2625 163.186 39.8421 168.335C40.368 168.498 40.7245 168.995 40.7245 169.545V180.146C40.7245 180.543 40.368 180.841 39.9765 180.771C36.4175 180.128 20.7671 177.656 6.84078 180.911L5.98755 167.704Z" fill="#263238"/>
<path d="M6.74143 167.505V165.115C6.74143 164.326 6.10443 163.689 5.31548 163.689H3.38111C2.89021 163.689 2.44022 163.958 2.20646 164.384L0.5 167.505V185.768L2.18308 187.825C2.43438 188.135 2.81424 188.316 3.21748 188.316H5.31548C6.10443 188.316 6.74143 187.679 6.74143 186.89V167.505Z" fill="#7335EE" stroke="#263238" stroke-miterlimit="10" stroke-linecap="round" stroke-linejoin="round"/>
<path d="M5.51418 166.33L9.45891 165.6C9.92643 165.512 10.3589 165.874 10.3589 166.348V168.621L9.05567 169.591V176.99H10.3589V180.847C10.3589 181.291 10.0433 181.677 9.61085 181.764L5.86482 182.542C5.3038 182.659 4.77783 182.226 4.77783 181.653V167.219C4.77783 166.78 5.08757 166.406 5.51418 166.33Z" fill="#7335EE" stroke="#263238" stroke-miterlimit="10" stroke-linecap="round" stroke-linejoin="round"/>
<path d="M5.66016 181.531L8.87438 180.794C9.11398 180.742 9.28346 180.526 9.28346 180.28V177.867" stroke="#263238" stroke-miterlimit="10" stroke-linecap="round" stroke-linejoin="round"/>
<path d="M7.97461 176.867V168.948L9.26614 167.966V166.482" stroke="#263238" stroke-miterlimit="10" stroke-linecap="round" stroke-linejoin="round"/>
<path d="M2.75 165.138V186.288" stroke="#263238" stroke-miterlimit="10" stroke-linecap="round" stroke-linejoin="round"/>
<path d="M18.3593 173.395C18.0379 173.395 17.7808 173.138 17.7808 172.817V171.554C17.7808 171.233 18.0379 170.976 18.3593 170.976C18.6807 170.976 18.9379 171.233 18.9379 171.554V172.817C18.9379 173.132 18.6749 173.395 18.3593 173.395Z" fill="white"/>
<path d="M27.26 173.629C26.9385 173.629 26.6814 173.372 26.6814 173.051V171.788C26.6814 171.467 26.9385 171.21 27.26 171.21C27.5814 171.21 27.8385 171.467 27.8385 171.788V173.051C27.8385 173.372 27.5755 173.629 27.26 173.629Z" fill="white"/>
<path d="M35.1784 174.605C34.857 174.605 34.5999 174.348 34.5999 174.027V172.764C34.5999 172.443 34.857 172.186 35.1784 172.186C35.4998 172.186 35.757 172.443 35.757 172.764V174.027C35.757 174.342 35.494 174.605 35.1784 174.605Z" fill="white"/>
</svg>
