<svg width="32" height="32" viewBox="0 0 32 32" fill="none" xmlns="http://www.w3.org/2000/svg">
<path fill-rule="evenodd" clip-rule="evenodd" d="M19.1814 16.4447C18.9975 15.9247 18.657 15.4745 18.2066 15.1561C17.7563 14.8377 17.2183 14.6667 16.6667 14.6667V14H15.3334V14.6667C14.6262 14.6667 13.9479 14.9476 13.4478 15.4477C12.9477 15.9478 12.6667 16.6261 12.6667 17.3333C12.6667 18.0406 12.9477 18.7189 13.4478 19.219C13.9479 19.719 14.6262 20 15.3334 20V22.6667C14.7534 22.6667 14.2594 22.2967 14.0754 21.778C14.0481 21.6931 14.0041 21.6146 13.9459 21.5471C13.8877 21.4795 13.8166 21.4244 13.7367 21.3848C13.6568 21.3452 13.5698 21.3221 13.4809 21.3167C13.3919 21.3113 13.3027 21.3239 13.2187 21.3536C13.1346 21.3833 13.0574 21.4295 12.9915 21.4896C12.9257 21.5497 12.8725 21.6223 12.8352 21.7033C12.798 21.7843 12.7773 21.8719 12.7745 21.961C12.7716 22.0501 12.7867 22.1388 12.8187 22.222C13.0026 22.742 13.3432 23.1922 13.7935 23.5106C14.2439 23.829 14.7819 24 15.3334 24V24.6667H16.6667V24C17.374 24 18.0523 23.719 18.5524 23.219C19.0525 22.7189 19.3334 22.0406 19.3334 21.3333C19.3334 20.6261 19.0525 19.9478 18.5524 19.4477C18.0523 18.9476 17.374 18.6667 16.6667 18.6667V16C16.9425 15.9999 17.2115 16.0854 17.4366 16.2445C17.6618 16.4037 17.8321 16.6287 17.9241 16.8887C17.983 17.0554 18.1057 17.1919 18.2652 17.2682C18.3442 17.3059 18.4298 17.3278 18.5173 17.3324C18.6047 17.3371 18.6922 17.3245 18.7747 17.2953C18.8573 17.2662 18.9333 17.2211 18.9984 17.1625C19.0635 17.104 19.1165 17.0332 19.1543 16.9542C19.192 16.8752 19.2139 16.7896 19.2185 16.7021C19.2232 16.6147 19.2106 16.5272 19.1814 16.4447ZM15.3334 16C14.9798 16 14.6407 16.1405 14.3906 16.3905C14.1406 16.6406 14.0001 16.9797 14.0001 17.3333C14.0001 17.687 14.1406 18.0261 14.3906 18.2761C14.6407 18.5262 14.9798 18.6667 15.3334 18.6667V16ZM16.6667 22.6667C17.0204 22.6667 17.3595 22.5262 17.6096 22.2761C17.8596 22.0261 18.0001 21.687 18.0001 21.3333C18.0001 20.9797 17.8596 20.6406 17.6096 20.3905C17.3595 20.1405 17.0204 20 16.6667 20V22.6667Z" fill="#7335EE"/>
<path fill-rule="evenodd" clip-rule="evenodd" d="M8.76873 5.74733C10.4047 4.94667 13.0887 4 16.0261 4C18.9021 4 21.5154 4.90733 23.1427 5.69733L23.2347 5.742C23.7254 5.98467 24.1214 6.214 24.4001 6.4L21.9374 10C27.6147 15.804 32.0001 27.998 16.0261 27.998C0.0520678 27.998 4.3194 16.0253 10.0461 10L7.5994 6.4C7.78807 6.27667 8.0274 6.13333 8.31274 5.98133C8.45407 5.90533 8.60607 5.82667 8.76873 5.74733ZM20.3547 9.952L22.3261 7.07C20.4927 7.202 18.3114 7.63267 16.2114 8.24067C14.7114 8.674 13.0447 8.608 11.5014 8.32333C11.1125 8.25123 10.7262 8.1654 10.3434 8.066L11.6234 9.95067C14.3667 10.9273 17.6107 10.9273 20.3547 9.952ZM10.8534 11.0867C14.0634 12.3267 17.9214 12.3267 21.1314 11.0853C22.4713 12.4978 23.5922 14.1029 24.4567 15.8473C25.3581 17.686 25.8487 19.524 25.7687 21.108C25.6914 22.6367 25.0901 23.9427 23.7167 24.9133C22.2854 25.9247 19.8781 26.6647 16.0254 26.6647C12.1687 26.6647 9.75007 25.9373 8.3054 24.9373C6.92207 23.9787 6.31474 22.6907 6.22874 21.1827C6.13874 19.616 6.61873 17.7873 7.51673 15.936C8.3734 14.1707 9.56874 12.4713 10.8534 11.0867ZM10.0867 6.61067C10.6201 6.76933 11.1774 6.90733 11.7427 7.012C13.1761 7.276 14.6134 7.31467 15.8401 6.95933C17.2695 6.5429 18.7234 6.21538 20.1934 5.97867C18.9667 5.60933 17.5321 5.33333 16.0254 5.33333C13.7287 5.33333 11.5867 5.974 10.0867 6.61067Z" fill="#7335EE"/>
</svg>
