<svg width="24" height="24" viewBox="0 0 24 24" fill="none" xmlns="http://www.w3.org/2000/svg">
<path d="M14.8284 14.8284C14.0783 15.5786 13.0609 16 12 16C10.9391 16 9.92172 15.5786 9.17157 14.8284C8.42143 14.0783 8 13.0609 8 12C8 10.9391 8.42143 9.92172 9.17157 9.17157C9.92172 8.42143 10.9391 8 12 8C13.0609 8 14.0783 8.42143 14.8284 9.17157C15.5786 9.92172 16 10.9391 16 12C16 13.0609 15.5786 14.0783 14.8284 14.8284ZM8.74719 4.14702C9.77846 3.71986 10.8838 3.5 12 3.5C14.2543 3.5 16.4163 4.39553 18.0104 5.98959C19.6045 7.58365 20.5 9.74566 20.5 12C20.5 14.2543 19.6045 16.4163 18.0104 18.0104C16.4163 19.6045 14.2543 20.5 12 20.5C10.8838 20.5 9.77846 20.2801 8.74719 19.853C7.71592 19.4258 6.77889 18.7997 5.98959 18.0104C5.20029 17.2211 4.57419 16.2841 4.14702 15.2528C3.71986 14.2215 3.5 13.1162 3.5 12C3.5 10.8838 3.71986 9.77846 4.14702 8.74719C4.57419 7.71592 5.20029 6.77889 5.98959 5.98959C6.77889 5.20029 7.71592 4.57419 8.74719 4.14702ZM6.34315 6.34315C4.84285 7.84344 4 9.87827 4 12C4 14.1217 4.84285 16.1566 6.34315 17.6569C7.84344 19.1571 9.87827 20 12 20C14.1217 20 16.1566 19.1571 17.6569 17.6569C19.1571 16.1566 20 14.1217 20 12C20 9.87827 19.1571 7.84344 17.6569 6.34315C16.1566 4.84285 14.1217 4 12 4C9.87827 4 7.84344 4.84285 6.34315 6.34315Z" fill="#7335EE" stroke="#7335EE"/>
</svg>
