<svg width="20" height="20" viewBox="0 0 20 20" fill="none" xmlns="http://www.w3.org/2000/svg">
<path d="M1.66675 6.9811C1.66675 6.68917 1.66675 6.5432 1.67893 6.42026C1.79642 5.23447 2.73447 4.29642 3.92026 4.17893C4.0432 4.16675 4.19705 4.16675 4.50473 4.16675C4.62329 4.16675 4.68257 4.16675 4.7329 4.1637C5.37559 4.12478 5.93837 3.71915 6.17854 3.12175C6.19734 3.07496 6.21492 3.02222 6.25008 2.91675C6.28524 2.81127 6.30282 2.75853 6.32163 2.71175C6.56179 2.11435 7.12457 1.70872 7.76726 1.6698C7.81759 1.66675 7.87318 1.66675 7.98436 1.66675H12.0158C12.127 1.66675 12.1826 1.66675 12.2329 1.6698C12.8756 1.70872 13.4384 2.11435 13.6785 2.71175C13.6973 2.75853 13.7149 2.81127 13.7501 2.91675C13.7852 3.02222 13.8028 3.07496 13.8216 3.12175C14.0618 3.71915 14.6246 4.12478 15.2673 4.1637C15.3176 4.16675 15.3769 4.16675 15.4954 4.16675C15.8031 4.16675 15.957 4.16675 16.0799 4.17893C17.2657 4.29642 18.2037 5.23447 18.3212 6.42026C18.3334 6.5432 18.3334 6.68917 18.3334 6.9811V13.5001C18.3334 14.9002 18.3334 15.6003 18.0609 16.1351C17.8212 16.6055 17.4388 16.9879 16.9684 17.2276C16.4336 17.5001 15.7335 17.5001 14.3334 17.5001H5.66675C4.26662 17.5001 3.56655 17.5001 3.03177 17.2276C2.56137 16.9879 2.17892 16.6055 1.93923 16.1351C1.66675 15.6003 1.66675 14.9002 1.66675 13.5001V6.9811Z" fill="white"/>
<path d="M10.0001 13.7501C11.841 13.7501 13.3334 12.2577 13.3334 10.4167C13.3334 8.5758 11.841 7.08341 10.0001 7.08341C8.15913 7.08341 6.66675 8.5758 6.66675 10.4167C6.66675 12.2577 8.15913 13.7501 10.0001 13.7501Z" fill="white"/>
<path d="M1.66675 6.9811C1.66675 6.68917 1.66675 6.5432 1.67893 6.42026C1.79642 5.23447 2.73447 4.29642 3.92026 4.17893C4.0432 4.16675 4.19705 4.16675 4.50473 4.16675C4.62329 4.16675 4.68257 4.16675 4.7329 4.1637C5.37559 4.12478 5.93837 3.71915 6.17854 3.12175C6.19734 3.07496 6.21492 3.02222 6.25008 2.91675C6.28524 2.81127 6.30282 2.75853 6.32163 2.71175C6.56179 2.11435 7.12457 1.70872 7.76726 1.6698C7.81759 1.66675 7.87318 1.66675 7.98436 1.66675H12.0158C12.127 1.66675 12.1826 1.66675 12.2329 1.6698C12.8756 1.70872 13.4384 2.11435 13.6785 2.71175C13.6973 2.75853 13.7149 2.81127 13.7501 2.91675C13.7852 3.02222 13.8028 3.07496 13.8216 3.12175C14.0618 3.71915 14.6246 4.12478 15.2673 4.1637C15.3176 4.16675 15.3769 4.16675 15.4954 4.16675C15.8031 4.16675 15.957 4.16675 16.0799 4.17893C17.2657 4.29642 18.2037 5.23447 18.3212 6.42026C18.3334 6.5432 18.3334 6.68917 18.3334 6.9811V13.5001C18.3334 14.9002 18.3334 15.6003 18.0609 16.1351C17.8212 16.6055 17.4388 16.9879 16.9684 17.2276C16.4336 17.5001 15.7335 17.5001 14.3334 17.5001H5.66675C4.26662 17.5001 3.56655 17.5001 3.03177 17.2276C2.56137 16.9879 2.17892 16.6055 1.93923 16.1351C1.66675 15.6003 1.66675 14.9002 1.66675 13.5001V6.9811Z" stroke="white" stroke-width="2" stroke-linecap="round" stroke-linejoin="round"/>
<path d="M10.0001 13.7501C11.841 13.7501 13.3334 12.2577 13.3334 10.4167C13.3334 8.5758 11.841 7.08341 10.0001 7.08341C8.15913 7.08341 6.66675 8.5758 6.66675 10.4167C6.66675 12.2577 8.15913 13.7501 10.0001 13.7501Z" stroke="white" stroke-width="2" stroke-linecap="round" stroke-linejoin="round"/>
</svg>
