<svg width="24" height="24" viewBox="0 0 24 24" fill="none" xmlns="http://www.w3.org/2000/svg">
<path d="M2.66204 9.40219L3.24142 9.75375L3.58595 9.11719C4.36267 7.81641 6.7397 4.78125 12 4.78125C17.3906 4.78125 19.6875 8.0775 20.4422 9.16219L20.8247 9.7575L22.0256 9L21.6253 8.37375C21.2091 7.77141 20.3353 6.52078 18.7763 5.41594C16.882 4.06969 14.6016 3.38672 12 3.38672C5.99673 3.38672 3.24892 6.9075 2.34376 8.41406L1.99829 9L2.53126 9.32156C2.5555 9.34051 2.58103 9.35774 2.60767 9.37313C2.62527 9.38376 2.64342 9.39346 2.66204 9.40219Z" fill="#FCFCFC"/>
<path d="M17.7759 8.0775C16.11 6.72141 14.1141 6.00328 12 6.00328C7.42876 6.00328 4.39173 9.09703 3.40642 12.1659C2.50407 15 3.60095 19.1067 3.64689 19.2825L3.8522 19.9298L5.25517 19.6284L5.03298 18.9253C5.02314 18.8902 3.99704 15.038 4.77939 12.5873C5.20126 11.2711 6.07923 9.99047 7.18642 9.08156C8.52236 7.98703 10.1883 7.40625 12 7.40625C16.2459 7.40625 18.653 10.7161 19.3336 12.4739C19.8619 13.83 19.74 15.3717 19.0392 16.3177C18.78 16.6641 18.323 17.0709 17.6274 17.0358C16.0425 16.9552 15.7683 16.1719 15.3872 14.6803C15.2044 13.9622 15.0169 13.2187 14.5495 12.6178C13.9805 11.8795 13.1527 11.5228 12.0052 11.5228C10.7709 11.5228 9.83626 11.9297 9.22173 12.7284C7.88111 14.4759 8.75298 17.4595 8.79001 17.5852L8.80032 17.625C8.86642 17.8059 10.4916 22.1555 14.8439 23.235L15.5363 23.3855L15.9155 22.0397L15.1997 21.8789C11.7206 21.015 10.268 17.4544 10.1564 17.1731C10.0307 16.7167 9.95059 16.249 9.91736 15.7767C9.86673 15.0989 9.90236 14.1647 10.3594 13.567C10.6945 13.1302 11.2331 12.9192 12 12.9192C13.3964 12.9192 13.6303 13.6022 13.9959 15.0187C14.3513 16.3997 14.8397 18.293 17.551 18.4289C18.592 18.4791 19.5319 18.0169 20.1919 17.1328C21.1824 15.8072 21.3703 13.778 20.6695 11.97C20.122 10.5469 19.066 9.13219 17.7759 8.0775Z" fill="#FCFCFC"/>
<path d="M7.22719 16.088C7.06453 14.7623 7.29328 12.7598 8.47172 11.4577C9.28922 10.5534 10.4775 10.0983 11.9963 10.0983C13.7536 10.0983 15.0839 10.882 15.9577 12.4237C16.3877 13.1974 16.6718 14.0435 16.7958 14.9198L16.8628 15.6084L18.2691 15.5053C18.2704 15.2608 18.2547 15.0164 18.2222 14.7741C18.217 14.7141 18.0548 13.2525 17.2378 11.7858C16.11 9.765 14.302 8.69531 12 8.69531C10.0547 8.69531 8.50547 9.31312 7.40344 10.5286C5.91047 12.1758 5.60578 14.5716 5.81391 16.2638V16.2792C6.1875 18.8353 7.17187 20.8795 8.91328 22.7077L9.45703 23.2336L10.4391 22.2122L9.95438 21.7533C8.42062 20.1464 7.55203 18.3483 7.22719 16.088ZM6.20953 3.40594C6.72891 3.09094 8.56594 2.15109 12 2.15109C16.1034 2.15109 17.9269 3.49734 17.947 3.50719L18.5986 3.9225L19.3594 2.74078L18.7397 2.33953C18.7153 2.32172 18.69 2.30391 18.6647 2.28703C18.0703 1.90031 15.9628 0.75 12 0.75C7.88859 0.75 5.77734 1.99125 5.27766 2.33016L4.64062 2.74312L5.4 3.92484L6.20953 3.40594Z" fill="#FCFCFC"/>
<path d="M18.3089 19.463C16.7447 19.6388 15.4753 19.3378 14.5256 18.5794C12.9206 17.2936 12.7125 15.0586 12.7073 15.0169L12.6497 14.3194L11.2186 14.4239L11.28 15.127C11.2903 15.2423 11.5237 17.9747 13.6059 19.6523C14.6423 20.4909 15.9375 20.9128 17.4609 20.9128C17.7987 20.9121 18.1361 20.892 18.4715 20.8523L19.2492 20.7544L18.9633 19.3617L18.3089 19.463Z" fill="#FCFCFC"/>
</svg>
