<svg width="32" height="32" viewBox="0 0 32 32" fill="none" xmlns="http://www.w3.org/2000/svg">
<path d="M25.3333 29.3333V19.8667C25.3331 18.6408 25.0913 17.427 24.6219 16.2945C24.1524 15.1621 23.4645 14.1332 22.5973 13.2667L19.9973 10.6667V19.4493C19.9973 20.636 18.5613 21.232 17.7213 20.392L15.9947 18.6667C15.328 18 13.7267 17.6 12.6587 18.6667C11.592 19.7333 11.992 21.3333 12.6587 22L19.9973 29.3333" stroke="#B36C00" stroke-width="2" stroke-linecap="round" stroke-linejoin="round"/>
<path d="M14.6667 2.66667H17.3334C18.0407 2.66667 18.7189 2.94762 19.219 3.44772C19.7191 3.94782 20.0001 4.62609 20.0001 5.33334V8.00001M14.6667 2.66667C14.6667 4.44401 15.7334 8.00001 20.0001 8.00001M14.6667 2.66667H12.0001M20.0001 8.00001V16M12.0001 2.66667H9.33341C8.62617 2.66667 7.94789 2.94762 7.4478 3.44772C6.9477 3.94782 6.66675 4.62609 6.66675 5.33334V8.00001M12.0001 2.66667C12.0001 4.44401 10.9334 8.00001 6.66675 8.00001M6.66675 16V18.6667C6.66675 19.3739 6.9477 20.0522 7.4478 20.5523C7.94789 21.0524 8.62617 21.3333 9.33341 21.3333H12.0001C12.0001 19.556 10.9334 16 6.66675 16ZM6.66675 16V8.00001" stroke="#B36C00" stroke-width="2" stroke-linecap="round" stroke-linejoin="round"/>
<path d="M12.0001 12C12.0001 12.7364 12.597 13.3333 13.3334 13.3333C14.0698 13.3333 14.6667 12.7364 14.6667 12C14.6667 11.2636 14.0698 10.6667 13.3334 10.6667C12.597 10.6667 12.0001 11.2636 12.0001 12Z" stroke="#B36C00" stroke-width="2" stroke-linecap="round" stroke-linejoin="round"/>
</svg>
