<svg width="20" height="20" viewBox="0 0 20 20" fill="none" xmlns="http://www.w3.org/2000/svg">
<path d="M16.9417 2.98187C16.784 2.82926 16.5863 2.72197 16.3702 2.6718C16.1541 2.62163 15.928 2.63052 15.7167 2.6975L3.52502 6.6625C3.29891 6.73235 3.09911 6.86597 2.95084 7.04648C2.80258 7.22699 2.7125 7.44628 2.692 7.67667C2.67149 7.90707 2.72146 8.13822 2.83562 8.34093C2.94977 8.54364 3.12297 8.70883 3.33336 8.81562L8.39169 11.2531L10.8917 16.2012C10.9922 16.3949 11.1459 16.5575 11.3358 16.6709C11.5256 16.7842 11.7441 16.8439 11.9667 16.8431H12.05C12.2884 16.826 12.5161 16.7394 12.7033 16.5945C12.8906 16.4496 13.0288 16.2531 13.1 16.0306L17.225 4.17625C17.2987 3.97144 17.3112 3.75045 17.261 3.539C17.2108 3.32755 17.1001 3.13434 16.9417 2.98187ZM4.04169 7.78375L14.6834 4.3225L8.77502 10.0831L4.04169 7.78375ZM12.025 15.5594L9.65836 10.9444L15.5667 5.18375L12.025 15.5594Z" fill="#D1051C"/>
</svg>
