<svg width="50" height="52" viewBox="0 0 50 52" fill="none" xmlns="http://www.w3.org/2000/svg">
<path d="M32.9533 31.6968L33.8152 32.6006V31.3517V28.4383C33.8152 28.2431 33.9604 28.1258 34.09 28.1258H37.189C37.3186 28.1258 37.4637 28.2431 37.4637 28.4383V36.5633V47.9383C37.4637 48.1336 37.3186 48.2508 37.189 48.2508H34.09H15.4958H12.3968C12.2672 48.2508 12.1221 48.1336 12.1221 47.9383V36.5633C12.1221 36.4729 12.1565 36.3908 12.2108 36.3339L24.6068 23.3339C24.6069 23.3339 24.6069 23.3339 24.6069 23.3339C24.7125 23.2232 24.8733 23.2232 24.9789 23.3339C24.9789 23.3339 24.9789 23.3339 24.979 23.3339L32.9533 31.6968ZM34.8647 28.7508H34.3647V29.2508V32.9767V33.1769L34.5029 33.3218L36.0524 34.9468L36.9142 35.8506V34.6017V29.2508V28.7508H36.4142H34.8647ZM33.3152 47.6258H33.8152V47.1258V38.5248V38.3247L33.6771 38.1798L25.1548 29.2423L24.7929 28.8628L24.431 29.2423L15.9087 38.1798L15.7706 38.3247V38.5248V47.1258V47.6258H16.2706H33.3152ZM36.4142 47.6258H36.9142V47.1258V36.8998V36.6997L36.7761 36.5548L25.1548 24.3673L24.7929 23.9878L24.431 24.3673L12.8097 36.5548L12.6716 36.6997V36.8998V47.1258V47.6258H13.1716H14.7211H15.2211V47.1258V38.1883C15.2211 38.0979 15.2556 38.0158 15.3098 37.9588L24.6068 28.2089C24.6069 28.2089 24.6069 28.2089 24.6069 28.2089C24.7125 28.0982 24.8733 28.0982 24.9789 28.2089C24.9789 28.2089 24.9789 28.2089 24.979 28.2089L34.276 37.9588C34.3302 38.0158 34.3647 38.0979 34.3647 38.1883V47.1258V47.6258H34.8647H36.4142Z" fill="white" stroke="#707070"/>
<mask id="path-2-inside-1_349_2761" fill="white">
<path d="M49.3574 46.5505L46.4853 43.5385V27.9526C46.4853 24.7998 45.5631 21.7017 43.8715 19.1091C44.5113 18.6745 44.9358 17.9197 44.9358 17.0625C44.9358 16.4426 44.7136 15.8764 44.3489 15.4458L46.3304 12.675C46.5064 12.4289 46.5348 12.0995 46.4035 11.8242C46.2722 11.5489 46.004 11.375 45.7105 11.375H45.4806L49.3137 7.92946C49.5836 7.68681 49.6615 7.28265 49.5025 6.9492L47.953 3.6992C47.9522 3.69756 47.9512 3.6961 47.9504 3.69447C47.9416 3.6763 47.9314 3.65901 47.9213 3.64161C47.9157 3.63186 47.9106 3.62162 47.9046 3.61215C47.8938 3.59508 47.8816 3.57908 47.8695 3.56292C47.863 3.55423 47.8572 3.54495 47.8504 3.53656C47.8362 3.51898 47.8205 3.50266 47.8049 3.48637C47.7993 3.48053 47.7943 3.47404 47.7885 3.4684C47.7667 3.4471 47.7437 3.42706 47.7195 3.40839C47.7074 3.39905 47.6943 3.3912 47.6817 3.38261C47.6693 3.37412 47.6574 3.3649 47.6444 3.35712L47.6432 3.35641C47.6429 3.35625 47.6427 3.35607 47.6424 3.35591L42.2211 0.107125C41.9176 -0.0748245 41.5359 -0.0209686 41.2889 0.238045L39.1916 2.43756H31.765V0.812557C31.765 0.363808 31.4181 5.79732e-05 30.9902 5.79732e-05H18.5941C18.1663 5.79732e-05 17.8194 0.363808 17.8194 0.812557V2.43756H10.3928L8.29543 0.238045C8.04831 -0.0209686 7.66661 -0.0748245 7.36321 0.107125L1.94196 3.35591C1.94168 3.35607 1.9414 3.35625 1.94111 3.35641L1.93993 3.35712C1.92695 3.3649 1.91506 3.37412 1.9026 3.38261C1.88999 3.3912 1.87692 3.39905 1.86484 3.40839C1.84065 3.42706 1.81764 3.4471 1.79587 3.4684C1.79017 3.47395 1.78525 3.48033 1.77972 3.48607C1.76395 3.50246 1.7482 3.5189 1.73387 3.53659C1.72718 3.54484 1.72146 3.55399 1.7151 3.56253C1.70295 3.57882 1.69061 3.59495 1.67968 3.61216C1.67368 3.62162 1.66867 3.63186 1.66302 3.64161C1.65294 3.65901 1.64273 3.6763 1.63393 3.69447C1.63313 3.6961 1.63211 3.69756 1.63133 3.6992L0.0818232 6.9492C-0.0771566 7.28265 0.000678231 7.68681 0.270594 7.92946L4.1037 11.375H3.87379C3.56046 11.375 3.27797 11.573 3.15805 11.8766C3.03813 12.1802 3.10433 12.5297 3.32592 12.7621L5.57277 15.1184C5.01181 15.5638 4.64854 16.2694 4.64854 17.0625C4.64854 17.9197 5.07304 18.6745 5.71279 19.1091C4.02118 21.7017 3.09903 24.7998 3.09903 27.9526V43.5385L0.226901 46.5505C0.081634 46.7028 1.62191e-05 46.9095 1.62191e-05 47.125C1.62191e-05 49.8131 2.08538 52 4.64854 52H44.9358C47.4989 52 49.5843 49.8131 49.5843 47.125C49.5843 46.9095 49.5027 46.7028 49.3574 46.5505ZM22.5708 13C22.1827 13.1174 21.8266 13.336 21.5327 13.6442C21.2655 13.9245 21.0692 14.2595 20.9519 14.625H7.29375L5.74419 13H22.5708ZM9.67005 10.6171L13.1233 7.59924L14.3352 8.8702L11.3496 11.375H10.3928L9.67005 10.6171ZM16.7237 11.375H13.83L15.4376 10.0263L16.7237 11.375ZM17.8194 10.226L15.0413 7.31255H17.8194V10.226ZM39.1916 11.375H38.2347L35.2491 8.8702L36.461 7.59924L39.9143 10.6171L39.1916 11.375ZM34.1467 10.0263L35.7544 11.375H32.8606L34.1467 10.0263ZM31.765 10.226V7.31255H34.543L31.765 10.226ZM44.161 13L42.9771 14.6555C42.858 14.6356 42.7359 14.625 42.6115 14.625H28.6324C28.5151 14.2595 28.3188 13.9246 28.0516 13.6442C27.7576 13.336 27.4016 13.1174 27.0135 13H44.161ZM26.956 19.3317C26.6173 19.687 26.066 19.6869 25.7274 19.3318L22.6284 16.0818C22.4189 15.8621 22.3749 15.6102 22.3749 15.4375C22.3749 15.2649 22.4189 15.0129 22.6284 14.7933C22.793 14.6206 23.0111 14.5255 23.2427 14.5255C23.4741 14.5255 23.6923 14.6206 23.8569 14.7933L26.5645 17.6327L27.0358 18.1345C27.1494 18.2955 27.2094 18.4859 27.2094 18.6875C27.2094 18.8602 27.1654 19.112 26.956 19.3317ZM22.4884 18.2331L23.6745 19.477C23.3426 19.6764 22.9114 19.6286 22.6284 19.3318C22.4189 19.1121 22.3749 18.8602 22.3749 18.6875C22.3749 18.5256 22.4143 18.3711 22.4884 18.2331ZM27.0951 15.8911L25.9094 14.6476C26.0398 14.5685 26.1876 14.5255 26.3417 14.5255C26.5731 14.5255 26.7913 14.6206 26.9559 14.7933C27.1654 15.013 27.2094 15.2649 27.2094 15.4375C27.2094 15.5616 27.1856 15.7265 27.0951 15.8911ZM25.6698 13C25.3497 13.0968 25.0517 13.2627 24.7921 13.4908C24.5326 13.2627 24.2345 13.0968 23.9145 13H25.6698ZM22.6012 11.375C22.921 10.4294 23.7822 9.75005 24.7922 9.75005C25.8021 9.75005 26.6633 10.4294 26.9831 11.375H22.6012ZM28.9852 17.875L28.201 17.0587C28.393 16.8172 28.5382 16.5435 28.6323 16.25H30.6693L29.1198 17.875H28.9852ZM27.1164 8.93978C26.4685 8.42855 25.6635 8.12505 24.7922 8.12505C23.9208 8.12505 23.1158 8.42855 22.4679 8.93978V6.3608C23.1274 6.11562 23.6508 5.56665 23.8846 4.87505H25.6997C25.9335 5.56665 26.457 6.11562 27.1164 6.3608V8.93978ZM6.97281 16.25H8.97613L7.42662 17.875H6.97281C6.54561 17.875 6.19805 17.5105 6.19805 17.0625C6.19805 16.6145 6.54561 16.25 6.97281 16.25ZM11.1675 16.25H13.6247L12.0752 17.875H9.61801L11.1675 16.25ZM15.816 16.25H18.2732L16.7237 17.875H14.2665L15.816 16.25ZM20.4646 16.25H20.952C21.0461 16.5436 21.1913 16.8172 21.3833 17.0588L20.5992 17.875H18.9151L20.4646 16.25ZM21.0324 19.7169C21.1514 19.9982 21.3193 20.257 21.5327 20.4808C21.7492 20.7079 21.997 20.8821 22.2616 21.0049L20.1436 23.226L18.915 21.9375L21.0324 19.7169ZM28.0517 20.4807C28.265 20.2569 28.4329 19.9981 28.5518 19.7169L30.6693 21.9375L29.4407 23.226L27.3227 21.0048C27.5873 20.8821 27.8352 20.7078 28.0517 20.4807ZM32.8606 16.25H35.3178L33.7683 17.875H31.3111L32.8606 16.25ZM37.5092 16.25H39.9663L38.4168 17.875H35.9597L37.5092 16.25ZM42.1577 16.25H42.6115C43.0387 16.25 43.3863 16.6145 43.3863 17.0625C43.3863 17.5105 43.0387 17.875 42.6115 17.875H40.6082L42.1577 16.25ZM43.0997 11.375H41.3829L47.0478 5.43419L47.846 7.10848L43.0997 11.375ZM41.9661 1.8259L45.9949 4.24024L41.0144 9.46336L37.5612 6.44546L41.9661 1.8259ZM37.6421 4.06255L36.0925 5.68755H31.765V4.06255H37.6421ZM30.2154 1.62506V11.375H28.6659V5.68755C28.6659 5.2388 28.319 4.87505 27.8912 4.87505C27.464 4.87505 27.1164 4.51056 27.1164 4.06255C27.1164 3.6138 26.7695 3.25005 26.3417 3.25005H23.2427C22.8148 3.25005 22.4679 3.6138 22.4679 4.06255C22.4679 4.51056 22.1203 4.87505 21.6931 4.87505C21.2653 4.87505 20.9184 5.2388 20.9184 5.68755V11.375H19.3689V1.62506H30.2154ZM17.8194 4.06255V5.68755H13.4918L11.9423 4.06255H17.8194ZM7.61818 1.8259L12.0231 6.44546L8.56989 9.46336L3.5894 4.24024L7.61818 1.8259ZM1.7383 7.10848L2.53651 5.43419L8.20138 11.375H6.48466L1.7383 7.10848ZM44.9358 50.375H4.64854C3.04295 50.375 1.71872 49.0878 1.56447 47.4459L4.42166 44.4495L5.97117 42.8245C6.27371 42.5072 6.27371 41.9928 5.97117 41.6755C5.66853 41.3582 5.17807 41.3582 4.87543 41.6755L4.64854 41.9134V27.9526C4.64854 24.9101 5.60668 21.9242 7.35257 19.5H19.0479L17.2715 21.363C16.969 21.6803 16.969 22.1948 17.2715 22.512L19.5958 24.9495C19.7471 25.1082 19.9453 25.1875 20.1436 25.1875C20.342 25.1875 20.5402 25.1082 20.6915 24.9495L24.7922 20.6491L28.8928 24.9495C29.0441 25.1082 29.2424 25.1875 29.4407 25.1875C29.639 25.1875 29.8372 25.1082 29.9886 24.9495L32.3128 22.512C32.6154 22.1948 32.6154 21.6803 32.3128 21.363L30.5364 19.5H42.2318C43.9776 21.9242 44.9358 24.9101 44.9358 27.9526V41.9134L44.7089 41.6755C44.4063 41.3582 43.9158 41.3582 43.6132 41.6755C43.3106 41.9928 43.3106 42.5072 43.6132 42.8245L45.1627 44.4495L48.0199 47.4459C47.8656 49.0878 46.5414 50.375 44.9358 50.375Z"/>
</mask>
<path d="M49.3574 46.5505L46.4853 43.5385V27.9526C46.4853 24.7998 45.5631 21.7017 43.8715 19.1091C44.5113 18.6745 44.9358 17.9197 44.9358 17.0625C44.9358 16.4426 44.7136 15.8764 44.3489 15.4458L46.3304 12.675C46.5064 12.4289 46.5348 12.0995 46.4035 11.8242C46.2722 11.5489 46.004 11.375 45.7105 11.375H45.4806L49.3137 7.92946C49.5836 7.68681 49.6615 7.28265 49.5025 6.9492L47.953 3.6992C47.9522 3.69756 47.9512 3.6961 47.9504 3.69447C47.9416 3.6763 47.9314 3.65901 47.9213 3.64161C47.9157 3.63186 47.9106 3.62162 47.9046 3.61215C47.8938 3.59508 47.8816 3.57908 47.8695 3.56292C47.863 3.55423 47.8572 3.54495 47.8504 3.53656C47.8362 3.51898 47.8205 3.50266 47.8049 3.48637C47.7993 3.48053 47.7943 3.47404 47.7885 3.4684C47.7667 3.4471 47.7437 3.42706 47.7195 3.40839C47.7074 3.39905 47.6943 3.3912 47.6817 3.38261C47.6693 3.37412 47.6574 3.3649 47.6444 3.35712L47.6432 3.35641C47.6429 3.35625 47.6427 3.35607 47.6424 3.35591L42.2211 0.107125C41.9176 -0.0748245 41.5359 -0.0209686 41.2889 0.238045L39.1916 2.43756H31.765V0.812557C31.765 0.363808 31.4181 5.79732e-05 30.9902 5.79732e-05H18.5941C18.1663 5.79732e-05 17.8194 0.363808 17.8194 0.812557V2.43756H10.3928L8.29543 0.238045C8.04831 -0.0209686 7.66661 -0.0748245 7.36321 0.107125L1.94196 3.35591C1.94168 3.35607 1.9414 3.35625 1.94111 3.35641L1.93993 3.35712C1.92695 3.3649 1.91506 3.37412 1.9026 3.38261C1.88999 3.3912 1.87692 3.39905 1.86484 3.40839C1.84065 3.42706 1.81764 3.4471 1.79587 3.4684C1.79017 3.47395 1.78525 3.48033 1.77972 3.48607C1.76395 3.50246 1.7482 3.5189 1.73387 3.53659C1.72718 3.54484 1.72146 3.55399 1.7151 3.56253C1.70295 3.57882 1.69061 3.59495 1.67968 3.61216C1.67368 3.62162 1.66867 3.63186 1.66302 3.64161C1.65294 3.65901 1.64273 3.6763 1.63393 3.69447C1.63313 3.6961 1.63211 3.69756 1.63133 3.6992L0.0818232 6.9492C-0.0771566 7.28265 0.000678231 7.68681 0.270594 7.92946L4.1037 11.375H3.87379C3.56046 11.375 3.27797 11.573 3.15805 11.8766C3.03813 12.1802 3.10433 12.5297 3.32592 12.7621L5.57277 15.1184C5.01181 15.5638 4.64854 16.2694 4.64854 17.0625C4.64854 17.9197 5.07304 18.6745 5.71279 19.1091C4.02118 21.7017 3.09903 24.7998 3.09903 27.9526V43.5385L0.226901 46.5505C0.081634 46.7028 1.62191e-05 46.9095 1.62191e-05 47.125C1.62191e-05 49.8131 2.08538 52 4.64854 52H44.9358C47.4989 52 49.5843 49.8131 49.5843 47.125C49.5843 46.9095 49.5027 46.7028 49.3574 46.5505ZM22.5708 13C22.1827 13.1174 21.8266 13.336 21.5327 13.6442C21.2655 13.9245 21.0692 14.2595 20.9519 14.625H7.29375L5.74419 13H22.5708ZM9.67005 10.6171L13.1233 7.59924L14.3352 8.8702L11.3496 11.375H10.3928L9.67005 10.6171ZM16.7237 11.375H13.83L15.4376 10.0263L16.7237 11.375ZM17.8194 10.226L15.0413 7.31255H17.8194V10.226ZM39.1916 11.375H38.2347L35.2491 8.8702L36.461 7.59924L39.9143 10.6171L39.1916 11.375ZM34.1467 10.0263L35.7544 11.375H32.8606L34.1467 10.0263ZM31.765 10.226V7.31255H34.543L31.765 10.226ZM44.161 13L42.9771 14.6555C42.858 14.6356 42.7359 14.625 42.6115 14.625H28.6324C28.5151 14.2595 28.3188 13.9246 28.0516 13.6442C27.7576 13.336 27.4016 13.1174 27.0135 13H44.161ZM26.956 19.3317C26.6173 19.687 26.066 19.6869 25.7274 19.3318L22.6284 16.0818C22.4189 15.8621 22.3749 15.6102 22.3749 15.4375C22.3749 15.2649 22.4189 15.0129 22.6284 14.7933C22.793 14.6206 23.0111 14.5255 23.2427 14.5255C23.4741 14.5255 23.6923 14.6206 23.8569 14.7933L26.5645 17.6327L27.0358 18.1345C27.1494 18.2955 27.2094 18.4859 27.2094 18.6875C27.2094 18.8602 27.1654 19.112 26.956 19.3317ZM22.4884 18.2331L23.6745 19.477C23.3426 19.6764 22.9114 19.6286 22.6284 19.3318C22.4189 19.1121 22.3749 18.8602 22.3749 18.6875C22.3749 18.5256 22.4143 18.3711 22.4884 18.2331ZM27.0951 15.8911L25.9094 14.6476C26.0398 14.5685 26.1876 14.5255 26.3417 14.5255C26.5731 14.5255 26.7913 14.6206 26.9559 14.7933C27.1654 15.013 27.2094 15.2649 27.2094 15.4375C27.2094 15.5616 27.1856 15.7265 27.0951 15.8911ZM25.6698 13C25.3497 13.0968 25.0517 13.2627 24.7921 13.4908C24.5326 13.2627 24.2345 13.0968 23.9145 13H25.6698ZM22.6012 11.375C22.921 10.4294 23.7822 9.75005 24.7922 9.75005C25.8021 9.75005 26.6633 10.4294 26.9831 11.375H22.6012ZM28.9852 17.875L28.201 17.0587C28.393 16.8172 28.5382 16.5435 28.6323 16.25H30.6693L29.1198 17.875H28.9852ZM27.1164 8.93978C26.4685 8.42855 25.6635 8.12505 24.7922 8.12505C23.9208 8.12505 23.1158 8.42855 22.4679 8.93978V6.3608C23.1274 6.11562 23.6508 5.56665 23.8846 4.87505H25.6997C25.9335 5.56665 26.457 6.11562 27.1164 6.3608V8.93978ZM6.97281 16.25H8.97613L7.42662 17.875H6.97281C6.54561 17.875 6.19805 17.5105 6.19805 17.0625C6.19805 16.6145 6.54561 16.25 6.97281 16.25ZM11.1675 16.25H13.6247L12.0752 17.875H9.61801L11.1675 16.25ZM15.816 16.25H18.2732L16.7237 17.875H14.2665L15.816 16.25ZM20.4646 16.25H20.952C21.0461 16.5436 21.1913 16.8172 21.3833 17.0588L20.5992 17.875H18.9151L20.4646 16.25ZM21.0324 19.7169C21.1514 19.9982 21.3193 20.257 21.5327 20.4808C21.7492 20.7079 21.997 20.8821 22.2616 21.0049L20.1436 23.226L18.915 21.9375L21.0324 19.7169ZM28.0517 20.4807C28.265 20.2569 28.4329 19.9981 28.5518 19.7169L30.6693 21.9375L29.4407 23.226L27.3227 21.0048C27.5873 20.8821 27.8352 20.7078 28.0517 20.4807ZM32.8606 16.25H35.3178L33.7683 17.875H31.3111L32.8606 16.25ZM37.5092 16.25H39.9663L38.4168 17.875H35.9597L37.5092 16.25ZM42.1577 16.25H42.6115C43.0387 16.25 43.3863 16.6145 43.3863 17.0625C43.3863 17.5105 43.0387 17.875 42.6115 17.875H40.6082L42.1577 16.25ZM43.0997 11.375H41.3829L47.0478 5.43419L47.846 7.10848L43.0997 11.375ZM41.9661 1.8259L45.9949 4.24024L41.0144 9.46336L37.5612 6.44546L41.9661 1.8259ZM37.6421 4.06255L36.0925 5.68755H31.765V4.06255H37.6421ZM30.2154 1.62506V11.375H28.6659V5.68755C28.6659 5.2388 28.319 4.87505 27.8912 4.87505C27.464 4.87505 27.1164 4.51056 27.1164 4.06255C27.1164 3.6138 26.7695 3.25005 26.3417 3.25005H23.2427C22.8148 3.25005 22.4679 3.6138 22.4679 4.06255C22.4679 4.51056 22.1203 4.87505 21.6931 4.87505C21.2653 4.87505 20.9184 5.2388 20.9184 5.68755V11.375H19.3689V1.62506H30.2154ZM17.8194 4.06255V5.68755H13.4918L11.9423 4.06255H17.8194ZM7.61818 1.8259L12.0231 6.44546L8.56989 9.46336L3.5894 4.24024L7.61818 1.8259ZM1.7383 7.10848L2.53651 5.43419L8.20138 11.375H6.48466L1.7383 7.10848ZM44.9358 50.375H4.64854C3.04295 50.375 1.71872 49.0878 1.56447 47.4459L4.42166 44.4495L5.97117 42.8245C6.27371 42.5072 6.27371 41.9928 5.97117 41.6755C5.66853 41.3582 5.17807 41.3582 4.87543 41.6755L4.64854 41.9134V27.9526C4.64854 24.9101 5.60668 21.9242 7.35257 19.5H19.0479L17.2715 21.363C16.969 21.6803 16.969 22.1948 17.2715 22.512L19.5958 24.9495C19.7471 25.1082 19.9453 25.1875 20.1436 25.1875C20.342 25.1875 20.5402 25.1082 20.6915 24.9495L24.7922 20.6491L28.8928 24.9495C29.0441 25.1082 29.2424 25.1875 29.4407 25.1875C29.639 25.1875 29.8372 25.1082 29.9886 24.9495L32.3128 22.512C32.6154 22.1948 32.6154 21.6803 32.3128 21.363L30.5364 19.5H42.2318C43.9776 21.9242 44.9358 24.9101 44.9358 27.9526V41.9134L44.7089 41.6755C44.4063 41.3582 43.9158 41.3582 43.6132 41.6755C43.3106 41.9928 43.3106 42.5072 43.6132 42.8245L45.1627 44.4495L48.0199 47.4459C47.8656 49.0878 46.5414 50.375 44.9358 50.375Z" fill="white" stroke="#707070" stroke-width="2" mask="url(#path-2-inside-1_349_2761)"/>
<path d="M19.3695 38.6884H20.1442C20.2738 38.6884 20.419 38.8056 20.419 39.0009C20.419 39.1961 20.2738 39.3134 20.1442 39.3134H19.3695C19.2399 39.3134 19.0947 39.1961 19.0947 39.0009C19.0947 38.8056 19.2399 38.6884 19.3695 38.6884Z" fill="white" stroke="#707070"/>
<path d="M30.216 39.3134H29.4413C29.3117 39.3134 29.1665 39.1961 29.1665 39.0009C29.1665 38.8056 29.3117 38.6884 29.4413 38.6884H30.216C30.3456 38.6884 30.4908 38.8056 30.4908 39.0009C30.4908 39.1961 30.3456 39.3134 30.216 39.3134Z" fill="white" stroke="#707070"/>
</svg>
