<svg width="8" height="8" viewBox="0 0 8 8" fill="none" xmlns="http://www.w3.org/2000/svg">
<path d="M4.00033 2.16666C4.22134 2.16666 4.4333 2.25446 4.58958 2.41074C4.74586 2.56702 4.83366 2.77898 4.83366 3C4.83366 3.10943 4.8121 3.2178 4.77023 3.3189C4.72835 3.42001 4.66696 3.51187 4.58958 3.58925C4.5122 3.66664 4.42033 3.72802 4.31923 3.7699C4.21812 3.81178 4.10976 3.83333 4.00033 3.83333C3.77931 3.83333 3.56735 3.74553 3.41107 3.58925C3.25479 3.43297 3.16699 3.22101 3.16699 3C3.16699 2.77898 3.25479 2.56702 3.41107 2.41074C3.56735 2.25446 3.77931 2.16666 4.00033 2.16666ZM4.00033 0.666664C4.61916 0.666664 5.21266 0.912497 5.65024 1.35008C6.08783 1.78767 6.33366 2.38116 6.33366 3C6.33366 4.75 4.00033 7.33333 4.00033 7.33333C4.00033 7.33333 1.66699 4.75 1.66699 3C1.66699 2.38116 1.91282 1.78767 2.35041 1.35008C2.78799 0.912497 3.38149 0.666664 4.00033 0.666664ZM4.00033 1.33333C3.5583 1.33333 3.13437 1.50893 2.82181 1.82149C2.50925 2.13405 2.33366 2.55797 2.33366 3C2.33366 3.33333 2.33366 4 4.00033 6.23666C5.66699 4 5.66699 3.33333 5.66699 3C5.66699 2.55797 5.4914 2.13405 5.17884 1.82149C4.86628 1.50893 4.44235 1.33333 4.00033 1.33333Z" fill="#333333"/>
</svg>
