<svg width="16" height="16" viewBox="0 0 16 16" fill="none" xmlns="http://www.w3.org/2000/svg">
<path d="M7.99992 2.16668C4.77825 2.16668 2.16659 4.77834 2.16659 8.00001C2.16659 11.2217 4.77825 13.8333 7.99992 13.8333C11.2216 13.8333 13.8333 11.2217 13.8333 8.00001C13.8333 4.77834 11.2216 2.16668 7.99992 2.16668ZM1.33325 8.00001C1.33325 4.31801 4.31792 1.33334 7.99992 1.33334C11.6819 1.33334 14.6666 4.31801 14.6666 8.00001C14.6666 11.682 11.6819 14.6667 7.99992 14.6667C4.31792 14.6667 1.33325 11.682 1.33325 8.00001ZM7.99992 6.66668C8.22992 6.66668 8.41659 6.85334 8.41659 7.08334V11.25C8.41659 11.3605 8.37269 11.4665 8.29455 11.5446C8.21641 11.6228 8.11043 11.6667 7.99992 11.6667C7.88941 11.6667 7.78343 11.6228 7.70529 11.5446C7.62715 11.4665 7.58325 11.3605 7.58325 11.25V7.08334C7.58325 6.85334 7.76992 6.66668 7.99992 6.66668ZM7.99992 5.66668C8.17673 5.66668 8.3463 5.59644 8.47132 5.47141C8.59635 5.34639 8.66659 5.17682 8.66659 5.00001C8.66659 4.8232 8.59635 4.65363 8.47132 4.52861C8.3463 4.40358 8.17673 4.33334 7.99992 4.33334C7.82311 4.33334 7.65354 4.40358 7.52851 4.52861C7.40349 4.65363 7.33325 4.8232 7.33325 5.00001C7.33325 5.17682 7.40349 5.34639 7.52851 5.47141C7.65354 5.59644 7.82311 5.66668 7.99992 5.66668Z" fill="#7335EE"/>
</svg>
