<svg width="225" height="75" viewBox="0 0 225 75" fill="none" xmlns="http://www.w3.org/2000/svg">
<path opacity="0.2" fill-rule="evenodd" clip-rule="evenodd" d="M123.069 12.0909C133.314 6.85984 146.112 -1.53696 161.596 0.243382C175.608 1.85445 173.158 11.687 173.052 17.838C172.967 22.8062 153.061 28.0414 161.056 31.6762C176.666 38.7739 226.394 31.7604 224.97 41.4432C223.571 50.9535 178.513 40.9596 158.994 45.6931C150.798 47.6808 160.774 53.6808 158.495 57.5637C154.952 63.5995 155.476 72.1754 142.003 74.6447C130.047 76.8358 120.65 68.2341 108.068 66.8057C96.3215 65.4721 77.8305 71.2134 71.984 66.6954C64.2254 60.6997 94.9003 51.1466 82.286 46.8815C60.4508 39.4987 -2.49711 54.1679 0.0766528 42.3824C2.84388 29.7109 60.0174 38.4202 85.5912 31.7462C92.8916 29.8411 74.084 22.8207 81.6335 21.0986C91.0856 18.9425 101.898 27.9242 111.449 25.8479C121.79 23.5999 115.647 15.8804 123.069 12.0909Z" fill="#C4C4C4" fill-opacity="0.5"/>
</svg>
