<svg width="20" height="20" viewBox="0 0 20 20" fill="none" xmlns="http://www.w3.org/2000/svg">
<path d="M3.05831 16.5181C3.21596 16.6707 3.4137 16.778 3.62981 16.8282C3.84593 16.8784 4.07204 16.8695 4.28331 16.8025L16.475 12.8375C16.7011 12.7676 16.9009 12.634 17.0492 12.4535C17.1974 12.273 17.2875 12.0537 17.308 11.8233C17.3285 11.5929 17.2785 11.3618 17.1644 11.1591C17.0502 10.9564 16.877 10.7912 16.6666 10.6844L11.6083 8.24688L9.10831 3.29875C9.00783 3.10507 8.85406 2.94246 8.66422 2.82911C8.47437 2.71575 8.25593 2.65612 8.03331 2.65688H7.94998C7.71157 2.674 7.48395 2.76064 7.29669 2.90553C7.10944 3.05043 6.97122 3.24689 6.89998 3.46938L2.77498 15.3238C2.70132 15.5286 2.68885 15.7496 2.73901 15.961C2.78917 16.1724 2.8999 16.3657 3.05831 16.5181ZM15.9583 11.7163L5.31664 15.1775L11.225 9.41688L15.9583 11.7163ZM7.97498 3.94063L10.3416 8.55563L4.43331 14.3163L7.97498 3.94063Z" fill="#00A340"/>
</svg>
