<svg width="75" height="110" viewBox="0 0 75 110" fill="none" xmlns="http://www.w3.org/2000/svg">
<path opacity="0.2" fill-rule="evenodd" clip-rule="evenodd" d="M19.3006 16.0805C22.2366 6.77849 32.2284 -0.489505 41.8905 0.0257974C51.5507 0.541006 58.8949 10.5302 65.29 18.5332C70.4773 25.0248 75.1191 32.9871 74.6753 41.0539C74.2676 48.4661 64.6208 51.3201 63.0922 58.4861C61.8028 64.5302 71.3931 72.7733 67.0451 76.8228C62.4461 81.106 53.2185 68.116 48.4149 72.1556C37.6689 81.1926 41.6258 104.041 28.5515 109.194C18.655 113.095 3.27666 102.145 0.534361 91.0292C-2.65894 78.0851 9.23266 67.7861 15.6749 56.999C18.4886 52.2876 26.8243 51.8333 27.3264 46.1677C28.2388 35.8698 16.2452 25.7606 19.3006 16.0805Z" fill="#C4C4C4" fill-opacity="0.4"/>
</svg>
