<svg width="16" height="16" viewBox="0 0 16 16" fill="none" xmlns="http://www.w3.org/2000/svg">
<path d="M3.27741 2.25001C3.20876 2.18629 3.11875 2.15056 3.02508 2.14987C2.93142 2.14917 2.84089 2.18355 2.7713 2.24625C2.70171 2.30894 2.6581 2.39541 2.64905 2.48863C2.64 2.58186 2.66617 2.6751 2.72241 2.75001L4.02741 4.18751C1.69741 5.55626 0.700534 7.75001 0.657409 7.84813C0.636042 7.89613 0.625 7.94809 0.625 8.00063C0.625 8.05317 0.636042 8.10513 0.657409 8.15313C0.678659 8.20126 1.19866 9.35438 2.35991 10.5156C3.43741 11.5919 5.28866 12.875 7.99991 12.875C9.13317 12.8819 10.2543 12.642 11.2855 12.1719L12.723 13.7525C12.79 13.8261 12.8835 13.8701 12.9829 13.8748C13.0822 13.8795 13.1794 13.8445 13.253 13.7775C13.3266 13.7105 13.3706 13.6171 13.3753 13.5177C13.38 13.4183 13.345 13.3211 13.278 13.2475L3.27741 2.25001ZM6.31616 6.70751L9.12866 9.80251C8.7064 10.0664 8.20489 10.1736 7.71166 10.1054C7.21843 10.0372 6.7648 9.79801 6.42993 9.42951C6.09507 9.06101 5.90024 8.58662 5.87945 8.08914C5.85865 7.59165 6.01322 7.10266 6.31616 6.70751ZM7.99991 12.125C6.03866 12.125 4.32616 11.4113 2.90928 10.0044C2.31519 9.41422 1.81256 8.73864 1.41803 8.00001C1.68616 7.48751 2.67428 5.80126 4.54303 4.75563L5.80553 6.14376C5.35604 6.67639 5.11534 7.35417 5.1282 8.05101C5.14106 8.74784 5.40661 9.41628 5.87545 9.93196C6.34429 10.4477 6.9845 10.7755 7.67696 10.8544C8.36943 10.9334 9.067 10.7581 9.63991 10.3613L10.753 11.5863C9.88035 11.9474 8.94434 12.1305 7.99991 12.125ZM8.39991 5.91251C8.30219 5.89386 8.21589 5.83716 8.15998 5.75487C8.10407 5.67259 8.08314 5.57147 8.10178 5.47376C8.12043 5.37604 8.17713 5.28973 8.25942 5.23383C8.3417 5.17792 8.44282 5.15698 8.54053 5.17563C9.15117 5.29426 9.70713 5.60704 10.1255 6.06735C10.544 6.52766 10.8024 7.11085 10.8624 7.73001C10.867 7.77905 10.8618 7.82851 10.8473 7.87556C10.8327 7.92261 10.809 7.96634 10.7776 8.00424C10.7461 8.04214 10.7075 8.07347 10.6639 8.09644C10.6204 8.11941 10.5727 8.13358 10.5237 8.13813H10.4887C10.3949 8.13853 10.3044 8.10377 10.2349 8.04072C10.1655 7.97766 10.1223 7.89089 10.1137 7.79751C10.0691 7.34065 9.87821 6.9104 9.56943 6.57076C9.26065 6.23113 8.85046 6.00026 8.39991 5.91251ZM15.3424 8.15313C15.3168 8.21063 14.6943 9.59063 13.2887 10.8481C13.2522 10.8823 13.2093 10.9088 13.1624 10.9262C13.1155 10.9435 13.0657 10.9513 13.0158 10.9492C12.9658 10.947 12.9169 10.9348 12.8717 10.9134C12.8265 10.892 12.7861 10.8618 12.7528 10.8246C12.7194 10.7873 12.6939 10.7438 12.6776 10.6966C12.6614 10.6493 12.6547 10.5993 12.6581 10.5494C12.6614 10.4996 12.6747 10.4509 12.6971 10.4062C12.7195 10.3616 12.7507 10.3218 12.7887 10.2894C13.5152 9.6366 14.1221 8.86181 14.5818 8.00001C14.1872 7.26142 13.6846 6.58585 13.0905 5.99563C11.6737 4.58876 9.96116 3.87501 7.99991 3.87501C7.58765 3.87451 7.17605 3.90796 6.76928 3.97501C6.72031 3.98424 6.66998 3.98362 6.62125 3.97317C6.57251 3.96273 6.52635 3.94268 6.48545 3.91419C6.44456 3.8857 6.40976 3.84934 6.38308 3.80724C6.35639 3.76514 6.33837 3.71815 6.33007 3.66901C6.32176 3.61986 6.32333 3.56956 6.33469 3.52103C6.34605 3.4725 6.36697 3.42672 6.39622 3.38637C6.42548 3.34602 6.46248 3.31191 6.50508 3.28603C6.54767 3.26014 6.59499 3.24301 6.64428 3.23563C7.09231 3.16126 7.54575 3.12425 7.99991 3.12501C10.7112 3.12501 12.5624 4.40876 13.6399 5.48501C14.8012 6.64626 15.3212 7.79751 15.3424 7.84813C15.3638 7.89613 15.3748 7.94809 15.3748 8.00063C15.3748 8.05317 15.3638 8.10513 15.3424 8.15313Z" fill="white"/>
</svg>
